<?xml version="1.0" encoding="UTF-8" standalone="no"?>
<!-- Created with Inkscape (http://www.inkscape.org/) -->
<svg id="svg2" xmlns:rdf="http://www.w3.org/1999/02/22-rdf-syntax-ns#" xmlns="http://www.w3.org/2000/svg" height="117.53" width="700.57" version="1.1" xmlns:cc="http://creativecommons.org/ns#" xmlns:dc="http://purl.org/dc/elements/1.1/" viewBox="0 0 700.56717 117.53345">
 <metadata id="metadata7">
  <rdf:RDF>
   <cc:Work rdf:about="">
    <dc:format>image/svg+xml</dc:format>
    <dc:type rdf:resource="http://purl.org/dc/dcmitype/StillImage"/>
    <dc:title/>
   </cc:Work>
  </rdf:RDF>
 </metadata>
 <g id="layer1" transform="translate(-18.236 -360.37)">
  <g id="g4206" fill-rule="evenodd" transform="translate(224.8 344.14)">
   <path id="path4208" d="m75 23.32-24.355 15.574-44.479 67.606 41.176-21.711 27.658-38.934 27.66 38.934 41.17 21.711-44.475-67.606-24.355-15.574z" fill="#a1323e"/>
   <path id="path4206" d="m75 27.724-20.355 11.903-28.366 75.253 32.537-21.861 16.184-59.721 16.184 59.721 32.536 21.861-28.365-75.253-20.355-11.903z" fill="#6f212b"/>
   <path id="path4202" d="m79.333 111.16 20.857 15.52-9.678-66.24-10.011-6.841z" fill="#a21e2c"/>
   <path id="path4202-7" d="m70.667 111.16-20.857 15.517 9.6774-66.24 10.011-6.8409z" fill="#a21e2c"/>
  </g>
  <flowRoot id="flowRoot4223" style="word-spacing:0px;letter-spacing:0px;text-anchor:middle;text-align:center" xml:space="preserve" font-size="15px" line-height="125%" font-family="&apos;Droid Sans&apos;" fill="#000000"><flowRegion id="flowRegion4225"><rect id="rect4227" height="20.203" width="25.254" y="416.98" x="32.325"/></flowRegion><flowPara id="flowPara4229"/></flowRoot>
  <flowRoot id="flowRoot4231" style="word-spacing:0px;letter-spacing:0px;text-anchor:middle;text-align:center" xml:space="preserve" font-size="15px" line-height="125%" font-family="&apos;Droid Sans&apos;" fill="#000000"><flowRegion id="flowRegion4233"><rect id="rect4235" height="20.203" width="45.457" y="391.72" x="74.751"/></flowRegion><flowPara id="flowPara4237"/></flowRoot>
  <g id="text4239" fill="#493b3b">
   <path id="path4385" d="m82.922 401.38v16.88q0 4-2.8 6.8t-6.8 2.8h-8.8l18.08 21.44h-8.56l-18-21.44h-21.12q-0.72 0-3.12-0.32v21.76h-6.48v-57.52h48q4 0 6.8 2.8t2.8 6.8zm-48 19.92h38.4q1.28 0 2.16-0.88t0.88-2.16v-16.88q0-1.28-0.88-2.16-0.88-0.96-2.16-0.96h-38.4q-1.28 0-2.24 0.96-0.88 0.88-0.88 2.16v16.88q0 1.28 0.88 2.16 0.96 0.88 2.24 0.88z"/>
   <path id="path4387" d="m100.78 391.7h38.4q4 0 6.8 2.8t2.8 6.8v38.4q0 4-2.8 6.8t-6.8 2.8h-38.4q-4 0-6.8-2.8t-2.8-6.8v-38.4q0-4 2.8-6.8t6.8-2.8zm0 51.12h38.4q1.28 0 2.16-0.88 0.96-0.96 0.96-2.24v-38.4q0-1.28-0.96-2.16-0.88-0.96-2.16-0.96h-38.4q-1.28 0-2.24 0.96-0.88 0.88-0.88 2.16v38.4q0 1.28 0.88 2.24 0.96 0.88 2.24 0.88z"/>
   <path id="path4389" d="m214.79 401.3v2.24h-6.48v-2.24q0-1.28-0.96-2.16-0.88-0.96-2.16-0.96h-38.4q-1.28 0-2.24 0.96-0.88 0.88-0.88 2.16v12.88q0 1.28 0.88 2.16 0.96 0.88 2.24 0.88h38.4q4 0 6.8 2.8t2.8 6.8v12.88q0 4-2.8 6.8t-6.8 2.8h-38.4q-4 0-6.8-2.8t-2.8-6.8v-2.24h6.48v2.24q0 1.28 0.88 2.24 0.96 0.88 2.24 0.88h38.4q1.28 0 2.16-0.88 0.96-0.96 0.96-2.24v-12.88q0-1.28-0.96-2.16-0.88-0.88-2.16-0.88h-38.4q-4 0-6.8-2.8t-2.8-6.8v-12.88q0-4 2.8-6.8t6.8-2.8h38.4q4 0 6.8 2.8t2.8 6.8z"/>
  </g>
  <g id="text4157" fill="#493b3b">
   <path id="path4372" d="m384.81 390.74h52.56v6.48h-46.08v19.04h37.04v6.56h-37.04v25.52h-6.48v-57.6z"/>
   <path id="path4374" d="m442.55 448.34v-57.68h6.48v51.2h51.12v6.48h-57.6z"/>
   <path id="path4376" d="m504.89 448.34v-57.6h6.48v57.6h-6.48z"/>
   <path id="path4378" d="m580.07 400.34v2.32h-6.48v-2.32q0-1.28-0.96-2.16-0.88-0.96-2.16-0.96h-38.4q-1.28 0-2.24 0.96-0.88 0.88-0.88 2.16v38.4q0 1.28 0.88 2.24 0.96 0.88 2.24 0.88h38.4q1.28 0 2.16-0.88 0.96-0.96 0.96-2.24v-14.24h-14.24v-6.56h20.72v20.8q0 4-2.8 6.8t-6.8 2.8h-38.4q-4 0-6.8-2.8t-2.8-6.8v-38.4q0-4 2.8-6.8t6.8-2.8h38.4q4 0 6.8 2.8t2.8 6.8z"/>
   <path id="path4380" d="m641.43 390.74h6.56v57.6h-6.56v-25.52h-46v25.52h-6.48v-57.6h6.48v25.52h46v-25.52z"/>
   <path id="path4382" d="m654.12 390.74h57.6v6.48h-25.52v51.12h-6.48v-51.12h-25.6v-6.48z"/>
  </g>
 </g>
</svg>
