<?xml version="1.0" standalone="no"?>
<!DOCTYPE svg PUBLIC "-//W3C//DTD SVG 20010904//EN"
 "http://www.w3.org/TR/2001/REC-SVG-20010904/DTD/svg10.dtd">
<svg version="1.0" xmlns="http://www.w3.org/2000/svg"
 width="700.000000pt" height="700.000000pt" viewBox="0 0 700.000000 700.000000"
 preserveAspectRatio="xMidYMid meet">
<metadata>
Created by potrace 1.11, written by Peter Selinger 2001-2013
</metadata>
<g transform="translate(0.000000,700.000000) scale(0.100000,-0.100000)"
fill="#000000" stroke="none">
<path d="M3435 5871 c-241 -156 -297 -191 -301 -191 -3 0 -18 -9 -32 -21 -15
-11 -64 -44 -109 -72 -104 -66 -241 -153 -363 -232 -52 -33 -133 -85 -181
-115 -81 -51 -89 -59 -160 -167 -40 -62 -81 -124 -89 -137 -8 -13 -31 -48 -51
-78 -37 -54 -222 -336 -411 -623 -57 -88 -162 -248 -233 -355 -71 -107 -202
-307 -293 -445 -194 -296 -372 -567 -678 -1030 -124 -187 -229 -348 -235 -357
-8 -15 -2 -14 33 6 24 12 101 54 173 91 72 37 166 87 210 110 115 61 252 133
390 205 66 35 138 73 161 85 22 12 107 57 190 100 82 43 153 82 159 86 17 17
24 9 15 -18 -8 -27 -37 -105 -85 -228 -48 -124 -315 -836 -315 -841 0 -3 15 6
32 19 43 31 1224 823 1256 841 10 6 12 -2 7 -36 -3 -23 -8 -56 -10 -73 -2 -16
-10 -77 -19 -135 -8 -58 -18 -123 -21 -145 -3 -22 -12 -80 -20 -130 -8 -49
-17 -110 -20 -135 -3 -25 -8 -61 -11 -80 -3 -19 -9 -60 -14 -90 -5 -30 -12
-77 -15 -105 -3 -27 -12 -90 -20 -140 -17 -109 -20 -136 -35 -245 -6 -46 -14
-89 -17 -94 -11 -17 8 -3 734 537 l242 181 -4 175 c-3 97 -7 291 -10 431 -7
366 -14 743 -20 985 -8 378 -18 878 -19 990 l-1 110 80 110 c44 61 92 128 108
150 15 22 36 51 47 65 l20 25 20 -25 c11 -14 36 -47 55 -75 61 -88 133 -190
142 -200 36 -43 40 -61 37 -170 -1 -60 -5 -256 -8 -435 -8 -416 -15 -719 -21
-995 -2 -121 -7 -357 -10 -525 -4 -168 -8 -375 -10 -462 l-3 -156 254 -189
c140 -103 265 -196 277 -205 12 -10 108 -81 212 -158 105 -77 199 -148 209
-156 18 -16 19 -14 12 42 -3 33 -8 70 -11 84 -2 14 -6 43 -10 65 -3 22 -10 67
-15 100 -5 33 -11 76 -14 95 -3 19 -12 85 -21 145 -9 61 -18 126 -21 145 -6
41 -12 86 -19 135 -3 19 -7 52 -10 73 -3 20 -10 62 -15 92 -5 30 -12 78 -15
105 -6 53 -24 174 -31 215 -2 14 -6 44 -9 68 -7 51 -10 52 118 -35 45 -31 321
-216 612 -411 292 -195 538 -362 548 -370 9 -8 17 -12 17 -9 0 6 -126 343
-247 662 -26 66 -52 136 -59 155 -7 19 -33 89 -58 155 -25 66 -44 121 -42 122
1 1 18 -6 37 -16 19 -10 81 -43 139 -73 58 -30 143 -75 190 -100 47 -25 139
-74 205 -108 66 -34 147 -77 180 -95 33 -18 114 -61 180 -95 66 -35 156 -82
200 -105 240 -128 227 -124 179 -58 -13 17 -24 36 -24 41 0 5 -9 17 -20 27
-11 10 -20 24 -20 32 0 7 -4 13 -10 13 -5 0 -10 4 -10 9 0 5 -62 103 -138 218
-76 114 -194 293 -263 398 -68 104 -200 305 -294 447 -93 142 -273 415 -400
608 -126 193 -293 446 -370 563 -77 117 -217 329 -311 472 -94 143 -180 267
-190 276 -11 8 -194 127 -409 264 -214 137 -433 276 -485 310 -201 129 -227
145 -231 145 -2 0 -31 -17 -64 -39z"/>
</g>
</svg>
