<?xml version="1.0" standalone="no"?>
<!DOCTYPE svg PUBLIC "-//W3C//DTD SVG 20010904//EN"
 "http://www.w3.org/TR/2001/REC-SVG-20010904/DTD/svg10.dtd">
<svg version="1.0" xmlns="http://www.w3.org/2000/svg"
 width="700.000000pt" height="700.000000pt" viewBox="0 0 700.000000 700.000000"
 preserveAspectRatio="xMidYMid meet">
<metadata>
Created by potrace 1.11, written by Peter Selinger 2001-2013
</metadata>
<g transform="translate(0.000000,700.000000) scale(0.100000,-0.100000)"
fill="#000000" stroke="none">
<path d="M3355 5867 c-77 -51 -199 -130 -270 -176 -72 -47 -188 -123 -260
-170 -71 -46 -195 -127 -275 -179 -80 -52 -171 -111 -202 -131 -62 -39 -74
-55 -413 -571 -71 -107 -188 -285 -260 -395 -73 -110 -192 -292 -267 -405 -74
-113 -195 -297 -270 -410 -74 -113 -192 -293 -263 -400 -519 -790 -656 -997
-716 -1087 -77 -115 -78 -114 63 -40 99 53 289 152 523 272 94 48 206 107 250
130 44 23 175 91 290 150 116 59 216 112 223 118 7 5 14 8 17 5 4 -4 -44 -146
-65 -193 -5 -11 -20 -49 -33 -85 -13 -36 -63 -171 -112 -300 -48 -129 -91
-246 -95 -260 -5 -14 -26 -76 -48 -137 -22 -62 -38 -113 -36 -113 7 0 1274
849 1297 869 18 15 18 13 13 -34 -4 -28 -8 -61 -10 -75 -12 -67 -36 -230 -41
-270 -3 -25 -7 -56 -10 -70 -2 -14 -7 -45 -10 -70 -3 -25 -10 -72 -15 -105 -5
-33 -12 -80 -15 -105 -3 -25 -8 -52 -10 -60 -2 -8 -7 -37 -10 -64 -3 -27 -19
-138 -35 -247 -35 -230 -34 -223 -17 -209 26 22 410 308 602 448 359 261 415
304 416 316 1 13 -3 284 -6 456 -4 196 -15 697 -20 895 -2 99 -7 313 -10 475
-4 162 -8 360 -10 440 -10 421 -10 425 44 496 20 27 74 102 119 167 46 64 87
117 92 117 14 0 247 -333 254 -365 8 -30 8 -127 1 -410 -2 -82 -6 -289 -10
-460 -3 -170 -8 -384 -10 -475 -2 -91 -7 -307 -10 -480 -4 -173 -8 -367 -10
-430 -2 -63 -4 -187 -6 -274 -2 -158 -1 -160 22 -179 13 -10 141 -104 284
-209 325 -237 692 -508 712 -527 13 -13 14 -8 8 40 -3 30 -8 65 -10 79 -6 33
-13 75 -20 130 -3 25 -15 101 -25 170 -11 69 -22 145 -25 169 -3 23 -7 55 -10
70 -5 32 -55 373 -61 421 -3 19 -9 64 -15 100 -17 105 -20 130 -13 130 3 0 38
-21 76 -47 38 -27 77 -53 86 -58 30 -18 197 -130 202 -135 10 -10 939 -630
944 -630 3 0 -10 44 -30 97 -19 54 -50 141 -68 193 -19 52 -41 115 -50 140
-10 25 -26 70 -37 100 -10 30 -23 64 -28 75 -5 11 -44 112 -86 225 -42 113
-79 212 -82 220 -9 23 -12 40 -6 40 8 0 116 -60 132 -73 8 -7 16 -11 18 -9 3
2 95 -43 178 -88 28 -15 149 -78 270 -140 121 -62 243 -125 270 -140 28 -15
149 -78 270 -140 121 -62 235 -122 254 -133 54 -32 93 -96 -424 688 -87 132
-192 292 -234 355 -42 63 -78 120 -81 125 -3 6 -80 123 -171 260 -91 138 -213
322 -271 410 -58 88 -176 268 -263 400 -87 132 -214 326 -283 430 -68 105
-136 208 -151 229 -14 21 -30 46 -36 55 -5 9 -61 94 -124 189 l-114 172 -189
122 c-104 68 -227 148 -273 178 -47 30 -235 153 -419 273 -183 119 -335 217
-337 217 -2 -1 -67 -42 -144 -93z"/>
</g>
</svg>
