<?xml version="1.0" encoding="UTF-8" standalone="no"?>
<svg
   xmlns:dc="http://purl.org/dc/elements/1.1/"
   xmlns:cc="http://creativecommons.org/ns#"
   xmlns:rdf="http://www.w3.org/1999/02/22-rdf-syntax-ns#"
   xmlns:svg="http://www.w3.org/2000/svg"
   xmlns="http://www.w3.org/2000/svg"
   xmlns:sodipodi="http://sodipodi.sourceforge.net/DTD/sodipodi-0.dtd"
   xmlns:inkscape="http://www.inkscape.org/namespaces/inkscape"
   id="Layer_1"
   data-name="Layer 1"
   viewBox="0 0 480 480"
   version="1.1"
   inkscape:version="0.91 r13725"
   sodipodi:docname="favicon.svg"
   width="480"
   height="480"
   inkscape:export-filename="/home/dpkoch/git/sp2/res/favicon.png"
   inkscape:export-xdpi="90"
   inkscape:export-ydpi="90">
  <metadata
     id="metadata23">
    <rdf:RDF>
      <cc:Work
         rdf:about="">
        <dc:format>image/svg+xml</dc:format>
        <dc:type
           rdf:resource="http://purl.org/dc/dcmitype/StillImage" />
        <dc:title>logos-1</dc:title>
      </cc:Work>
    </rdf:RDF>
  </metadata>
  <sodipodi:namedview
     pagecolor="#ffffff"
     bordercolor="#666666"
     borderopacity="1"
     objecttolerance="10"
     gridtolerance="10"
     guidetolerance="10"
     inkscape:pageopacity="0"
     inkscape:pageshadow="2"
     inkscape:window-width="1606"
     inkscape:window-height="952"
     id="namedview21"
     showgrid="false"
     fit-margin-top="0"
     fit-margin-left="0"
     fit-margin-right="0"
     fit-margin-bottom="0"
     inkscape:zoom="0.87608069"
     inkscape:cx="180.05934"
     inkscape:cy="260.45716"
     inkscape:window-x="0"
     inkscape:window-y="27"
     inkscape:window-maximized="0"
     inkscape:current-layer="g4151" />
  <defs
     id="defs3">
    <style
       id="style5">.cls-1{fill:#a13340;}.cls-2{fill:#6e232b;}.cls-3{fill:#a1202f;}.cls-4,.cls-5{isolation:isolate;}.cls-5{font-size:89.56px;fill:#453939;font-family:HURTMOLD_;}</style>
  </defs>
  <title
     id="title7">logos-1</title>
  <g
     id="g4151"
     transform="matrix(3.7805962,0,0,3.7805962,5.9999982,-60.065917)">
    <path
       style="fill:#a13340"
       inkscape:connector-curvature="0"
       id="path9"
       d="M 123.79,109.56 Q 118.04,106.64 88.2,91.099998 l -26.3,-36.59 -26.31,36.61 Q 5.74,106.65 0,109.58 l 39.82,-60.460002 21.47,-14 0.62,-0.38 0.61,0.38 21.48,14 c 0,0 37.34,56.740002 39.79,60.440002 z"
       class="cls-1" />
    <path
       style="fill:#6e232b"
       inkscape:connector-curvature="0"
       id="path11"
       d="m 104.92,115.98 -28.85,-19.340002 -14.16,-52.36 -14.18,52.36 L 18.88,115.98 q 2.41,-7.56 25.55,-67.380002 l 17.46,-10.43 17.48,10.43 Q 102.52,108.42 104.92,115.98 Z"
       class="cls-2" />
    <path
       style="fill:#a1202f"
       inkscape:connector-curvature="0"
       d="M 47.99,65.119998 Q 39.99,119.98 39.36,124 44.58,120 58.17,110.12 L 57.05,58.819998 Z"
       class="cls-3"
       id="Path-10-Copy-8" />
    <path
       style="fill:#a1202f"
       inkscape:connector-curvature="0"
       d="M 66.74,58.819998 65.63,110.12 q 13.59,9.87 18.81,13.88 -0.63,-4 -8.63,-58.880002 z"
       class="cls-3"
       data-name="Path-10-Copy-8"
       id="Path-10-Copy-8-2" />
  </g>
  <g
     id="ROS"
     class="cls-4"
     style="isolation:isolate"
     transform="translate(-227.48,344.12)" />
</svg>
